<!-- Generated by IcoMoon.io -->
<svg version="1.1" xmlns="http://www.w3.org/2000/svg" width="32" height="32" viewBox="0 0 32 32">
<title>g88</title>
<path fill="none" stroke-linejoin="miter" stroke-linecap="butt" stroke-miterlimit="4" stroke-width="1.4629" stroke="#000" d="M15.723 2.419c-7.656 0-13.863 6.047-13.863 13.507v0c0.004 4.535 2.301 8.546 5.822 10.993l0.042 0.028c0.561-5.634 3.83-9.914 7.782-9.921h0.001c4.019 0.008 7.332 4.432 7.803 10.141l0.004 0.055c3.799-2.448 6.271-6.59 6.273-11.296v-0c0-7.459-6.207-13.507-13.863-13.507h-0z"></path>
<path fill="none" stroke-linejoin="miter" stroke-linecap="butt" stroke-miterlimit="4" stroke-width="1.4629" stroke="#000" d="M17.745 10.507c0 1.605-1.228 2.905-2.744 2.905s-2.744-1.301-2.744-2.905c0-1.605 1.228-2.905 2.744-2.905s2.744 1.301 2.744 2.905z"></path>
<path fill="none" stroke-linejoin="miter" stroke-linecap="butt" stroke-miterlimit="4" stroke-width="1.4629" stroke="#000" d="M17.745 24.878c0 1.995-1.034 3.612-2.311 3.612s-2.311-1.617-2.311-3.612c0-1.995 1.034-3.612 2.311-3.612s2.311 1.617 2.311 3.612z"></path>
</svg>
